<?xml version="1.0" encoding="UTF-8"?>
<svg width="227px" height="277px" viewBox="0 0 227 277" version="1.1" xmlns="http://www.w3.org/2000/svg" xmlns:xlink="http://www.w3.org/1999/xlink">
    <!-- Generator: Sketch 55.1 (78136) - https://sketchapp.com -->
    <title>Artboard</title>
    <desc>Created with Sketch.</desc>
    <defs>
        <path d="M154.5,132.71875 L154.5,147.703125 C154.5,151.235156 151.603125,154.125 148.0625,154.125 L57.9375,154.125 C54.396875,154.125 51.5,151.235156 51.5,147.703125 L51.5,132.71875 C51.5,129.186719 54.396875,126.296875 57.9375,126.296875 L148.0625,126.296875 C151.603125,126.296875 154.5,129.186719 154.5,132.71875 Z M148.0625,171.25 L57.9375,171.25 C54.396875,171.25 51.5,174.139844 51.5,177.671875 L51.5,192.65625 C51.5,196.188281 54.396875,199.078125 57.9375,199.078125 L148.0625,199.078125 C151.603125,199.078125 154.5,196.188281 154.5,192.65625 L154.5,177.671875 C154.5,174.139844 151.603125,171.25 148.0625,171.25 Z M206,70.5871094 L206,248.3125 C206,262.494141 194.466146,274 180.25,274 L25.75,274 C11.5338542,274 0,262.494141 0,248.3125 L0,25.6875 C0,11.5058594 11.5338542,0 25.75,0 L135.241146,0 C142.054167,0 148.598958,2.72929687 153.427083,7.54570313 L198.435937,52.4453125 C203.264062,57.2082031 206,63.790625 206,70.5871094 Z M137.333333,27.7746094 L137.333333,68.5 L178.157813,68.5 L137.333333,27.7746094 Z M180.25,248.3125 L180.25,94.1875 L124.458333,94.1875 C117.323437,94.1875 111.583333,88.4613281 111.583333,81.34375 L111.583333,25.6875 L25.75,25.6875 L25.75,248.3125 L180.25,248.3125 Z" id="path-1"></path>
    </defs>
    <g id="Artboard" stroke="none" stroke-width="1" fill="none" fill-rule="evenodd">
        <g id="Regular/file-alt-Copy" transform="translate(13.000000, 3.000000)">
            <mask id="mask-2" fill="white">
                <use xlink:href="#path-1"></use>
            </mask>
            <use id="Mask" fill="#7EC636" fill-rule="nonzero" xlink:href="#path-1"></use>
        </g>
    </g>
</svg>