<?xml version="1.0" encoding="UTF-8"?>
<svg width="15px" height="18px" viewBox="0 0 15 18" version="1.1" xmlns="http://www.w3.org/2000/svg" xmlns:xlink="http://www.w3.org/1999/xlink">
    <!-- Generator: Sketch 55.1 (78136) - https://sketchapp.com -->
    <title>Icons/ Edit Copy 2</title>
    <desc>Created with Sketch.</desc>
    <defs>
        <path d="M14.145,2.96 L10.9275,2.96 C10.3723406,1.39276269 8.96566876,0.355713454 7.395,0.355713454 C5.82433124,0.355713454 4.41765944,1.39276269 3.8625,2.96 L0.645,2.96 C0.334339828,2.96 0.0825,3.22862915 0.0825,3.56 C0.0825,3.89137085 0.334339828,4.16 0.645,4.16 L1.02,4.16 L1.02,16.56 C1.02,17.2227417 1.52367966,17.76 2.145,17.76 L12.27,17.76 C12.8913203,17.76 13.395,17.2227417 13.395,16.56 L13.395,4.16 L14.145,4.16 C14.4556602,4.16 14.7075,3.89137085 14.7075,3.56 C14.7075,3.22862915 14.4556602,2.96 14.145,2.96 L14.145,2.96 Z M7.395,1.56 C8.41875,1.56 9.3075,1.96 9.74625,2.96 L5.04375,2.96 C5.4825,1.956 6.37125,1.56 7.395,1.56 Z M12.27,16.56 L10.77,16.56 L10.77,9.76 C10.77,9.42862915 10.5181602,9.16 10.2075,9.16 C9.89683983,9.16 9.645,9.42862915 9.645,9.76 L9.645,16.56 L7.77,16.56 L7.77,7.36 C7.77,7.02862915 7.51816017,6.76 7.2075,6.76 C6.89683983,6.76 6.645,7.02862915 6.645,7.36 L6.645,16.56 L4.77,16.56 L4.77,9.76 C4.77,9.42862915 4.51816017,9.16 4.2075,9.16 C3.89683983,9.16 3.645,9.42862915 3.645,9.76 L3.645,16.56 L2.145,16.56 L2.145,4.16 L12.27,4.16 L12.27,16.56 Z" id="path-1"></path>
    </defs>
    <g id="Page-1" stroke="none" stroke-width="1" fill="none" fill-rule="evenodd">
        <g id="Lista-de-archivos" transform="translate(-1361.000000, -290.000000)">
            <g id="Icons/-Trash" transform="translate(1361.000000, 290.000000)">
                <mask id="mask-2" fill="white">
                    <use xlink:href="#path-1"></use>
                </mask>
                <g></g>
                <g id="Colors/-White" mask="url(#mask-2)" fill="#FFFFFF" fill-rule="evenodd">
                    <rect id="Rectangle" x="0.167625838" y="0.0599962186" width="14.6341463" height="17.5813953"></rect>
                </g>
            </g>
        </g>
    </g>
</svg>