<svg id="UrtAtm.tif" xmlns="http://www.w3.org/2000/svg" width="210.988" height="108.856" viewBox="0 0 210.988 108.856">
  <g id="Grupo_1" data-name="Grupo 1">
    <path id="Trazado_1" data-name="Trazado 1" d="M768.175,171.673a16.022,16.022,0,0,0-.219-4.219,8.9,8.9,0,0,0-7.562-7.3,27.623,27.623,0,0,0-5.722-.417,54.474,54.474,0,0,0-14.859,2.054c-.489.144-.976.3-1.479.459a3.842,3.842,0,0,1-.376-1.621c-.685-4.2-1.339-8.4-2-12.607-.093-.589-.09-.607.568-.79a71.733,71.733,0,0,1,8.733-1.856,86.193,86.193,0,0,1,10.161-1c5.437-.154,10.824.136,16.033,1.908a24.011,24.011,0,0,1,3.6,1.555,19.052,19.052,0,0,1,9.769,12.891,39.14,39.14,0,0,1,1.127,9.4q0,19.17,0,38.34a1.972,1.972,0,0,0,0,.274c.068.476-.114.694-.615.781-1.616.283-3.218.644-4.834.928-2.9.51-5.8,1.067-8.729,1.414a109.111,109.111,0,0,1-12.108.709,69.664,69.664,0,0,1-9.02-.376,30.318,30.318,0,0,1-12.041-3.647,17.02,17.02,0,0,1-8.377-12.327,26.037,26.037,0,0,1,.071-9.977,16.856,16.856,0,0,1,7.977-11.088,28.5,28.5,0,0,1,10.234-3.684,56.654,56.654,0,0,1,14.639-.509,28.723,28.723,0,0,1,4.144.634A1.839,1.839,0,0,0,768.175,171.673Zm.029,19.173q0-3.058,0-6.116c0-.9,0-.9-.853-1.027-.6-.087-1.2-.16-1.807-.246a36.127,36.127,0,0,0-9.372-.07,13.084,13.084,0,0,0-3.78.987,6.511,6.511,0,0,0-4.239,6.77,6.2,6.2,0,0,0,4.62,6.273,16.085,16.085,0,0,0,4.92.874,71.537,71.537,0,0,0,9.75-.344c.753-.081.758-.08.76-.895Q768.208,193.949,768.2,190.846Z" transform="translate(-574.972 -144.336)" fill="#fff"/>
    <path id="Trazado_2" data-name="Trazado 2" d="M734.918,145.991a1.251,1.251,0,0,1-.089.807,422.148,422.148,0,0,1-19.045,51.909c-1.749,3.913-3.6,7.776-5.5,11.617a1.313,1.313,0,0,1-1.389.853q-6.708-.059-13.415,0a1.373,1.373,0,0,1-1.444-.9c-4.781-9.514-8.972-19.287-12.843-29.2-4.4-11.271-8.229-22.74-11.723-34.322a1.256,1.256,0,0,1-.122-.7,2.342,2.342,0,0,1,.9-.064q8.806,0,17.614,0c.989,0,.982,0,1.248.977q5.436,19.829,12.263,39.224c.293.829.622,1.646.942,2.49.3-.122.3-.376.376-.584q7.3-20.245,12.964-41.008c.3-1.1.293-1.1,1.434-1.1q8.442,0,16.885,0Z" transform="translate(-578.247 -144.247)" fill="#fff"/>
    <path id="Trazado_3" data-name="Trazado 3" d="M584.371,146.077a1.245,1.245,0,0,1,.71-.084q8.991,0,17.981,0c.778,0,.785,0,.977.732,2.565,9.729,5.639,19.305,8.7,28.885,1.276,3.994,2.626,7.964,4.122,11.884.149.39.3.778.477,1.226a1.875,1.875,0,0,0,.467-.931c3.447-9.516,6.56-19.142,9.468-28.835,1.222-4.074,2.437-8.151,3.484-12.275.118-.463.268-.706.837-.7,5.964.026,11.927.017,17.889.019a4.3,4.3,0,0,1,.442.044,1.292,1.292,0,0,1-.1.817,420.693,420.693,0,0,1-20.731,55.557c-1.262,2.732-2.584,5.436-3.937,8.125a1,1,0,0,1-1.046.632q-6.937-.028-13.873,0a1.059,1.059,0,0,1-1.1-.7c-4.8-9.472-8.971-19.222-12.841-29.1-4.413-11.268-8.263-22.729-11.748-34.315A1.732,1.732,0,0,1,584.371,146.077Z" transform="translate(-582.85 -144.247)" fill="#fff"/>
    <path id="Trazado_4" data-name="Trazado 4" d="M668.585,178.6v31.207c0,.182,0,.366,0,.548-.01.791-.011.8-.8.8q-8.351,0-16.7,0c-1.1,0-1.019.111-1.019-1.04v-61.5c0-.7.014-1.4,0-2.1-.011-.393.144-.561.533-.527.152.013.3,0,.456,0q8.257,0,16.516,0c1.116,0,1.019-.1,1.019,1.038Q668.586,162.814,668.585,178.6Z" transform="translate(-579.29 -144.247)" fill="#fff"/>
    <path id="Trazado_5" data-name="Trazado 5" d="M642.5,248.413a11.394,11.394,0,1,1,11.256-11.932A11.376,11.376,0,0,1,642.5,248.413ZM642.6,232.2a2.727,2.727,0,0,0,2.674,2.763,2.782,2.782,0,0,0,2.815-2.735,2.739,2.739,0,0,0-2.695-2.747A2.7,2.7,0,0,0,642.6,232.2Z" transform="translate(-580.324 -139.932)" fill="#fff"/>
    <path id="Trazado_6" data-name="Trazado 6" d="M594.32,248.415a11.394,11.394,0,1,1,11.4-11.367A11.458,11.458,0,0,1,594.32,248.415Zm2.945-18.929a2.744,2.744,0,0,0-2.734,2.805,2.8,2.8,0,0,0,2.79,2.677,2.722,2.722,0,0,0,2.7-2.823A2.669,2.669,0,0,0,597.266,229.486Z" transform="translate(-582.927 -139.932)" fill="#fff"/>
    <path id="Trazado_7" data-name="Trazado 7" d="M732.787,216.672v11.454c.4.074.6-.154.825-.275a10.4,10.4,0,0,1,7.531-.9,8.582,8.582,0,0,1,6.374,6.293,14.5,14.5,0,0,1,.246,7.664,9.483,9.483,0,0,1-9.21,7.675,22.966,22.966,0,0,1-7.667-.89c-.732-.217-.739-.218-.74-.993q0-14.423,0-28.844c0-.772,0-.8.755-.921A8.207,8.207,0,0,1,732.787,216.672Zm.008,21.541q0,3.284,0,6.568c0,.867,0,.894.873,1.047a17.378,17.378,0,0,0,5.26.262,6.715,6.715,0,0,0,5.727-4.455,10.058,10.058,0,0,0,.624-3.115,12.344,12.344,0,0,0-.816-5.631,5.725,5.725,0,0,0-4.179-3.6,9.1,9.1,0,0,0-6.906,1.254,1.117,1.117,0,0,0-.6,1.1C732.811,233.835,732.794,236.025,732.8,238.213Z" transform="translate(-574.952 -140.418)" fill="#fff"/>
    <path id="Trazado_8" data-name="Trazado 8" d="M686.91,237.675c-2.19,0-4.38,0-6.57,0-.757,0-.774.014-.691.765a12.886,12.886,0,0,0,.5,2.592,6.081,6.081,0,0,0,5.679,4.514,12.007,12.007,0,0,0,6.082-.8c.441-.2.6-.078.666.365a6.036,6.036,0,0,0,.254,1.156c.165.461-.011.646-.425.811a14.21,14.21,0,0,1-6.437.943,12.42,12.42,0,0,1-2.6-.439,8.319,8.319,0,0,1-5.895-5.718,15.274,15.274,0,0,1-.234-8.551,10.239,10.239,0,0,1,2.893-4.982,8.8,8.8,0,0,1,11.85.111,8.322,8.322,0,0,1,2.04,3.915,16.138,16.138,0,0,1,.392,4.62c-.031.681-.043.693-.747.695C691.412,237.678,689.162,237.675,686.91,237.675Zm-1.282-2.3c1.793,0,3.586.005,5.38,0,.662,0,.682-.018.64-.65a8.712,8.712,0,0,0-.832-3.336,4.689,4.689,0,0,0-2.806-2.581,5.734,5.734,0,0,0-5.6.938,7.287,7.287,0,0,0-2.647,5.026c-.072.579-.046.6.571.6C682.1,235.382,683.864,235.376,685.628,235.376Z" transform="translate(-577.845 -139.907)" fill="#fff"/>
    <path id="Trazado_9" data-name="Trazado 9" d="M708.456,237.256a12.843,12.843,0,0,1,1.249-5.953,8.852,8.852,0,0,1,8.434-5.194,8.7,8.7,0,0,1,8.32,5.352,13.2,13.2,0,0,1,.3,10.639,9.083,9.083,0,0,1-9.376,5.979,9.314,9.314,0,0,1-8.45-7.159A15.521,15.521,0,0,1,708.456,237.256Zm2.834-.2a10.97,10.97,0,0,0,.915,4.789,6.054,6.054,0,0,0,3.568,3.442,6.329,6.329,0,0,0,8.1-3.347,9.487,9.487,0,0,0,.854-3.148,11.96,11.96,0,0,0-.832-6.423,6.372,6.372,0,0,0-11.677-.009A10.777,10.777,0,0,0,711.29,237.051Z" transform="translate(-576.127 -139.906)" fill="#fff"/>
    <path id="Trazado_10" data-name="Trazado 10" d="M661.487,229.2c-.091-.562-.168-1.16-.289-1.75-.08-.386.084-.562.421-.662a14.2,14.2,0,0,1,2.129-.49,16.726,16.726,0,0,1,4.908-.061,6.3,6.3,0,0,1,5.522,5.709,16.54,16.54,0,0,1,.167,2.273q-.01,6.023,0,12.045c0,.88,0,.892-.855,1.057a36.829,36.829,0,0,1-6.789.743,10.791,10.791,0,0,1-4.028-.642,5.634,5.634,0,0,1-3.821-5.274,7.814,7.814,0,0,1,.071-2,5.651,5.651,0,0,1,4.006-4.443,13.841,13.841,0,0,1,5.937-.651,16.2,16.2,0,0,1,2.757.489,12.135,12.135,0,0,0-.3-4.043,3.934,3.934,0,0,0-3.58-2.926,12.162,12.162,0,0,0-5.4.5c-.227.079-.464.126-.7.183C661.612,229.259,661.579,229.235,661.487,229.2Zm10.155,12.467c0-1,0-2.006,0-3.009,0-.754-.008-.755-.759-.973a13.656,13.656,0,0,0-5.334-.247,5.4,5.4,0,0,0-1.66.462,3.694,3.694,0,0,0-2.293,4.13,3.537,3.537,0,0,0,2.973,3.346,18.853,18.853,0,0,0,6.7-.007c.4-.047.369-.327.369-.6Q671.643,243.22,671.642,241.669Z" transform="translate(-578.816 -139.908)" fill="#fff"/>
    <path id="Trazado_11" data-name="Trazado 11" d="M766.875,236.8v9.126c0,.943,0,.94-.943,1.178a25.786,25.786,0,0,1-8.038.848c-4.207-.278-6.619-2.53-7.227-6.713a19.07,19.07,0,0,1-.2-2.818c.012-3.589,0-7.179,0-10.769,0-.213.007-.426,0-.639-.009-.288.085-.46.41-.455.608.008,1.218.012,1.826,0,.371-.008.471.186.457.511-.009.212,0,.425,0,.638q.014,5.659.032,11.317a10.349,10.349,0,0,0,.424,2.879,4.621,4.621,0,0,0,4.591,3.613,18.715,18.715,0,0,0,5.085-.3c.88-.183.884-.178.884-1.113q0-8.213,0-16.427c0-1.257-.143-1.122,1.12-1.108.5.006,1.133-.236,1.478.15.3.336.095.934.1,1.415C766.88,231.018,766.875,233.907,766.875,236.8Z" transform="translate(-573.851 -139.885)" fill="#fff"/>
    <path id="Trazado_12" data-name="Trazado 12" d="M769.613,244.511a12.641,12.641,0,0,0,5.864,1.2,8.339,8.339,0,0,0,3.026-.594,3.055,3.055,0,0,0,.747-5.177,7.606,7.606,0,0,0-1.892-1.087c-1.308-.572-2.624-1.128-3.932-1.7a11.53,11.53,0,0,1-2.208-1.27,5.257,5.257,0,0,1-.352-7.937,6.792,6.792,0,0,1,3.582-1.68,14.11,14.11,0,0,1,6.925.595c.667.238.685.251.5.9a8.143,8.143,0,0,1-.51,1.692c-.358-.133-.693-.255-1.025-.383a10.516,10.516,0,0,0-5.475-.473,4.111,4.111,0,0,0-1.447.533,2.924,2.924,0,0,0-.558,4.673,6.033,6.033,0,0,0,1.844,1.159c1.423.615,2.852,1.214,4.276,1.825a9.642,9.642,0,0,1,1.527.814,5.4,5.4,0,0,1,2.4,6.18,4.589,4.589,0,0,1-2.271,3.054A8.928,8.928,0,0,1,776.743,248a15.215,15.215,0,0,1-7.093-.791c-.723-.287-.729-.278-.517-1.042C769.28,245.649,769.435,245.129,769.613,244.511Z" transform="translate(-572.846 -139.907)" fill="#fff"/>
    <path id="Trazado_13" data-name="Trazado 13" d="M707.871,229.056a15.07,15.07,0,0,0-4.848-.473,10.961,10.961,0,0,0-2.426.371c-.758.2-.761.206-.761,1.058q0,4.284,0,8.568,0,4.148,0,8.3c0,.7-.013.7-.7.712-.517.008-1.033,0-1.55,0-.3,0-.454-.113-.437-.428.009-.181,0-.364,0-.546q0-9.072,0-18.141c0-.941,0-.942.909-1.262a17.3,17.3,0,0,1,9.5-.676c.148.032.3.069.442.109.269.075.431.208.312.525a4.069,4.069,0,0,0-.09.446C708.121,228.059,708.009,228.5,707.871,229.056Z" transform="translate(-576.739 -139.903)" fill="#fff"/>
    <path id="Trazado_14" data-name="Trazado 14" d="M630.1,237.039a11.754,11.754,0,1,1-11.747-11.75A11.778,11.778,0,0,1,630.1,237.039ZM618.3,248a10.977,10.977,0,1,0-10.93-11.064A11.018,11.018,0,0,0,618.3,248Z" transform="translate(-581.645 -139.951)" fill="#fff"/>
    <path id="Trazado_15" data-name="Trazado 15" d="M618.265,247.958a10.977,10.977,0,1,1,11.068-10.863A11.01,11.01,0,0,1,618.265,247.958Zm5.774-15.684a2.747,2.747,0,1,0-5.493-.095,2.74,2.74,0,0,0,2.753,2.781A2.711,2.711,0,0,0,624.038,232.274Z" transform="translate(-581.605 -139.912)" fill="#fff"/>
  </g>
</svg>
