<?xml version="1.0" encoding="UTF-8"?>
<svg width="58px" height="73px" viewBox="0 0 58 73" version="1.1" xmlns="http://www.w3.org/2000/svg" xmlns:xlink="http://www.w3.org/1999/xlink">
    <!-- Generator: Sketch 55.1 (78136) - https://sketchapp.com -->
    <title>Artboard</title>
    <desc>Created with Sketch.</desc>
    <defs>
        <path d="M41.25,35.359375 L41.25,39.3515625 C41.25,40.2925781 40.4765625,41.0625 39.53125,41.0625 L15.46875,41.0625 C14.5234375,41.0625 13.75,40.2925781 13.75,39.3515625 L13.75,35.359375 C13.75,34.4183594 14.5234375,33.6484375 15.46875,33.6484375 L39.53125,33.6484375 C40.4765625,33.6484375 41.25,34.4183594 41.25,35.359375 Z M39.53125,45.625 L15.46875,45.625 C14.5234375,45.625 13.75,46.3949219 13.75,47.3359375 L13.75,51.328125 C13.75,52.2691406 14.5234375,53.0390625 15.46875,53.0390625 L39.53125,53.0390625 C40.4765625,53.0390625 41.25,52.2691406 41.25,51.328125 L41.25,47.3359375 C41.25,46.3949219 40.4765625,45.625 39.53125,45.625 Z M55,18.8060547 L55,66.15625 C55,69.9345703 51.9205729,73 48.125,73 L6.875,73 C3.07942708,73 0,69.9345703 0,66.15625 L0,6.84375 C0,3.06542969 3.07942708,0 6.875,0 L36.1080729,0 C37.9270833,0 39.6744792,0.727148438 40.9635417,2.01035156 L52.9804688,13.9726563 C54.2695312,15.2416016 55,16.9953125 55,18.8060547 Z M36.6666667,7.39980469 L36.6666667,18.25 L47.5664063,18.25 L36.6666667,7.39980469 Z M48.125,66.15625 L48.125,25.09375 L33.2291667,25.09375 C31.3242188,25.09375 29.7916667,23.5681641 29.7916667,21.671875 L29.7916667,6.84375 L6.875,6.84375 L6.875,66.15625 L48.125,66.15625 Z" id="path-1"></path>
    </defs>
    <g id="Artboard" stroke="none" stroke-width="1" fill="none" fill-rule="evenodd">
        <g id="Regular/file-alt-Copy-2" transform="translate(1.000000, 0.000000)">
            <mask id="mask-2" fill="white">
                <use xlink:href="#path-1"></use>
            </mask>
            <use id="Mask" fill="#FFFFFF" fill-rule="nonzero" xlink:href="#path-1"></use>
        </g>
    </g>
</svg>