<?xml version="1.0" encoding="UTF-8"?>
<svg width="16px" height="22px" viewBox="0 0 16 22" version="1.1" xmlns="http://www.w3.org/2000/svg" xmlns:xlink="http://www.w3.org/1999/xlink">
    <!-- Generator: Sketch 55.1 (78136) - https://sketchapp.com -->
    <title>notifications</title>
    <desc>Created with Sketch.</desc>
    <g id="Page-1" stroke="none" stroke-width="1" fill="none" fill-rule="evenodd">
        <g id="Drag-and-drop" transform="translate(-1393.000000, -22.000000)" fill="#9EA0A5" fill-rule="nonzero">
            <g id="barra-lateral-viva" transform="translate(-3.000000, 0.000000)">
                <g id="Noti_icon-Copy-2" transform="translate(1396.000000, 20.000000)">
                    <path d="M6.13835819,4 L6,4 C6,2.87934365 7,2 8,2 C9,2 10,2.85276994 10,4 L9.86164181,4 C13.3053017,4.8318803 16,7.90246334 16,11.5631435 L16,21 L5.32907052e-15,21 L5.32907052e-15,11.5631435 C5.32907052e-15,7.90246334 2.69469834,4.8318803 6.13835819,4 Z M14,19 L14,11.5631435 C14,8.4309018 11.241731,5.77777778 8,5.77777778 C4.75826899,5.77777778 2,8.4309018 2,11.5631435 L2,19 L14,19 Z M10,22 C10,23.3461539 8.61707861,24 8,24 C7.38292139,24 6,23.3461539 6,22 L10,22 Z" id="notifications"></path>
                </g>
            </g>
        </g>
    </g>
</svg>