<?xml version="1.0" encoding="UTF-8"?>
<svg width="227px" height="277px" viewBox="0 0 227 277" version="1.1" xmlns="http://www.w3.org/2000/svg" xmlns:xlink="http://www.w3.org/1999/xlink">
    <!-- Generator: Sketch 55.1 (78136) - https://sketchapp.com -->
    <title>Artboard Copy</title>
    <desc>Created with Sketch.</desc>
    <defs>
        <path d="M123.046875,87.5 C124.671094,87.5 126,88.9765625 126,90.78125 L126,101.71875 C126,103.523438 124.671094,105 123.046875,105 L2.953125,105 C1.32890625,105 0,103.523438 0,101.71875 L0,3.28125 C0,1.4765625 1.32890625,0 2.953125,0 L12.796875,0 C14.4210938,0 15.75,1.4765625 15.75,3.28125 L15.75,87.5 L123.046875,87.5 Z M112.21875,8.75 L84.65625,8.75 C79.3898438,8.75 76.7566406,15.8320312 80.4726562,19.9609375 L88.5691406,28.9570312 L70.8503906,48.890625 L57.1675781,33.6875 C56.0109375,32.4023438 54.1652344,32.4023438 53.0085938,33.6875 L23.7234375,65.8984375 C22.5667969,67.15625 22.5421875,69.234375 23.6742188,70.5195312 L30.6878906,78.5585937 C31.8445313,79.8710937 33.7394531,79.8984375 34.8960938,78.5859375 L55.1003906,56.1367187 L68.7585937,71.3125 C69.9152344,72.5976562 71.7855469,72.5976562 72.9421875,71.3125 L99.815625,41.453125 L108.035156,50.5859375 C111.751172,54.7148437 118.125,51.7890625 118.125,45.9375 L118.125,15.3125 C118.125,11.6757812 115.491797,8.75 112.21875,8.75 Z" id="path-1"></path>
    </defs>
    <g id="Artboard-Copy" stroke="none" stroke-width="1" fill="none" fill-rule="evenodd">
        <polygon id="Path-7-Copy" stroke="#FFFFFF" stroke-width="17" stroke-linejoin="round" points="28 20 28 256 199 256 199 78.5396495 166.251625 20"></polygon>
        <g id="Solid/chart-line-Copy" transform="translate(51.000000, 93.000000)">
            <mask id="mask-2" fill="white">
                <use xlink:href="#path-1"></use>
            </mask>
            <use id="Mask" fill="#FFFFFF" fill-rule="nonzero" xlink:href="#path-1"></use>
        </g>
    </g>
</svg>