<?xml version="1.0" encoding="UTF-8"?>
<svg width="24px" height="24px" viewBox="0 0 24 24" version="1.1" xmlns="http://www.w3.org/2000/svg" xmlns:xlink="http://www.w3.org/1999/xlink">
    <!-- Generator: Sketch 55.1 (78136) - https://sketchapp.com -->
    <title>Solid/upload</title>
    <desc>Created with Sketch.</desc>
    <defs>
        <path d="M13.875,18 L10.125,18 C9.5015625,18 9,17.4984375 9,16.875 L9,9 L4.8890625,9 C4.0546875,9 3.6375,7.9921875 4.228125,7.4015625 L11.3578125,0.2671875 C11.709375,-0.084375 12.2859375,-0.084375 12.6375,0.2671875 L19.771875,7.4015625 C20.3625,7.9921875 19.9453125,9 19.1109375,9 L15,9 L15,16.875 C15,17.4984375 14.4984375,18 13.875,18 Z M24,17.625 L24,22.875 C24,23.4984375 23.4984375,24 22.875,24 L1.125,24 C0.5015625,24 0,23.4984375 0,22.875 L0,17.625 C0,17.0015625 0.5015625,16.5 1.125,16.5 L7.5,16.5 L7.5,16.875 C7.5,18.3234375 8.6765625,19.5 10.125,19.5 L13.875,19.5 C15.3234375,19.5 16.5,18.3234375 16.5,16.875 L16.5,16.5 L22.875,16.5 C23.4984375,16.5 24,17.0015625 24,17.625 Z M18.1875,21.75 C18.1875,21.234375 17.765625,20.8125 17.25,20.8125 C16.734375,20.8125 16.3125,21.234375 16.3125,21.75 C16.3125,22.265625 16.734375,22.6875 17.25,22.6875 C17.765625,22.6875 18.1875,22.265625 18.1875,21.75 Z M21.1875,21.75 C21.1875,21.234375 20.765625,20.8125 20.25,20.8125 C19.734375,20.8125 19.3125,21.234375 19.3125,21.75 C19.3125,22.265625 19.734375,22.6875 20.25,22.6875 C20.765625,22.6875 21.1875,22.265625 21.1875,21.75 Z" id="path-1"></path>
    </defs>
    <g id="Symbols" stroke="none" stroke-width="1" fill="none" fill-rule="evenodd">
        <g id="Menú/-lateral" transform="translate(-21.000000, -22.000000)">
            <g id="Solid/upload" transform="translate(21.000000, 22.000000)">
                <mask id="mask-2" fill="white">
                    <use xlink:href="#path-1"></use>
                </mask>
                <g id="Mask"></g>
                <g id="Color/Black" mask="url(#mask-2)" fill="#EAEBEC" fill-rule="evenodd" stroke="#979797" stroke-opacity="0" stroke-width="1">
                    <rect id="Black" x="0.5" y="0.5" width="23" height="23"></rect>
                </g>
            </g>
        </g>
    </g>
</svg>