<?xml version="1.0" encoding="UTF-8"?>
<svg width="28px" height="26px" viewBox="0 0 28 26" version="1.1" xmlns="http://www.w3.org/2000/svg" xmlns:xlink="http://www.w3.org/1999/xlink">
    <!-- Generator: Sketch 59 (86127) - https://sketch.com -->
    <title>Usuarios</title>
    <desc>Created with Sketch.</desc>
    <g id="ajustes" stroke="none" stroke-width="1" fill="none" fill-rule="evenodd">
        <g id="Ajuste" transform="translate(-24.000000, -159.000000)" fill="#FFFFFF" fill-rule="nonzero" stroke="#FFFFFF">
            <g id="Menu">
                <g id="Usuarios" transform="translate(25.000000, 160.000000)">
                    <path d="M23.8394,18.7152 L19.6997667,16.6311273 C19.3093333,16.4343273 19.0666667,16.0389818 19.0666667,15.5991273 L19.0666667,14.1237818 C19.1659,14.0016 19.2703333,13.8624 19.3782333,13.7088 C19.9151333,12.9451636 20.3454333,12.0951273 20.6583,11.1783273 C21.2697333,10.896 21.6666667,10.2872727 21.6666667,9.6 L21.6666667,7.85454545 C21.6666667,7.43432727 21.5106667,7.0272 21.2333333,6.70909091 L21.2333333,4.38807273 C21.2576,4.14807273 21.3529333,2.71941818 20.3268,1.5408 C19.4367333,0.5184 17.9924333,0 16.0333333,0 C14.0742333,0 12.6299333,0.5184 11.7398667,1.54036364 C11.1180333,2.25469091 10.9087333,3.05934545 10.8454667,3.63709091 C10.1027333,3.25047273 9.2274,3.05454545 8.23333333,3.05454545 C3.73143333,3.05454545 3.46926667,6.91854545 3.46666667,6.98181818 L3.46666667,8.97992727 C3.18586667,9.288 3.03333333,9.64363636 3.03333333,9.99665455 L3.03333333,11.5038545 C3.03333333,11.9746909 3.24263333,12.4136727 3.60143333,12.7104 C3.95893333,14.0674909 4.83816667,15.0929455 5.1805,15.4529455 L5.1805,16.6498909 C5.1805,16.9933091 4.99503333,17.3083636 4.67306667,17.4855273 L1.7901,19.3064727 C0.685966667,19.9130182 0,21.0768 0,22.3431273 L0,24 L6.06666667,24 L6.93333333,24 L26,24 L26,22.2357818 C26,20.7355636 25.1719,19.3863273 23.8394,18.7152 Z M5.86293392,22.2581591 L5.86293392,23.25 L0.764705882,23.25 L0.764705882,22.4536023 C0.764705882,21.4918977 1.26773105,20.6081932 2.09916707,20.1344318 L4.92528481,18.2850341 C5.49161298,17.9628409 5.84339071,17.3450455 5.84339071,16.6714091 L5.84339071,15.0799432 L5.70828767,14.9483182 C5.69724151,14.9376818 4.56840885,13.8252955 4.23489977,12.3091705 L4.1962382,12.1336705 L4.05093871,12.0361705 C3.85550663,11.9041023 3.73867224,11.6829545 3.73867224,11.4449659 L3.73867224,9.91421591 C3.73867224,9.75467045 3.84276106,9.56498864 4.02374816,9.39392045 L4.16352457,9.26229545 L4.16267487,6.87797727 C4.17032221,6.75078409 4.39167028,3.75 7.9871956,3.75 C9.00386725,3.75 9.8599447,3.99507955 10.5363096,4.47859091 L10.5363096,6.57528409 C10.2644041,6.89836364 10.1114573,7.31185227 10.1114573,7.73863636 L10.1114573,9.51136364 C10.1114573,9.64609091 10.1263271,9.77860227 10.1543674,9.907125 C10.1658384,9.95853409 10.1887804,10.0055114 10.2044999,10.0551477 C10.2278668,10.1296023 10.2465603,10.2062727 10.279274,10.2767386 C10.2796988,10.277625 10.2801237,10.2780682 10.2805485,10.2789545 C10.3893107,10.5129545 10.5477806,10.7221364 10.7474612,10.8892159 C10.7495855,10.8976364 10.7521346,10.9051705 10.7542589,10.9131477 C10.77975,11.0146364 10.8065157,11.1156818 10.8354057,11.2145114 L10.8698187,11.3301818 C10.8757666,11.3505682 10.8829891,11.3713977 10.8893619,11.3917841 C10.9042317,11.4396477 10.9186767,11.4870682 10.9339714,11.5340455 C10.9594626,11.6116023 10.9862282,11.6918182 11.0172425,11.779125 C11.0304129,11.8154659 11.0448579,11.8482614 11.0584531,11.8841591 C11.093291,11.9767841 11.1281289,12.0663068 11.1646662,12.1549432 C11.1735881,12.1762159 11.1812355,12.1992614 11.1901574,12.2200909 L11.2139491,12.2759318 C11.2249953,12.3016364 11.2364663,12.3246818 11.2475124,12.3499432 C11.289148,12.4447841 11.3299338,12.5365227 11.372419,12.6251591 C11.3792167,12.6393409 11.3855894,12.6548523 11.3923871,12.6690341 C11.4191528,12.7244318 11.4459185,12.7767273 11.4726842,12.8299091 C11.5185682,12.9212045 11.5636026,13.0071818 11.6086369,13.0905 C11.6307292,13.1312727 11.6523967,13.1711591 11.6740642,13.2097159 C11.7352429,13.3187386 11.7934477,13.4188977 11.849953,13.5119659 C11.8622738,13.5319091 11.8741696,13.5527386 11.8860655,13.5717955 C11.9888798,13.7379886 12.0780988,13.8727159 12.1520231,13.97775 C12.1715663,14.0056705 12.1885604,14.0296023 12.2051296,14.0530909 C12.2144764,14.0659432 12.2272219,14.0845568 12.2352941,14.0960795 L12.2352941,15.5625682 C12.2352941,15.9915682 12.0109721,16.3851136 11.6502725,16.59075 L10.5261132,17.2302614 L10.3302562,17.2120909 L10.250384,17.3871477 L7.86016476,18.7472727 C6.62809298,19.4492727 5.86293392,20.7938864 5.86293392,22.2581591 Z M25.2352941,23.25 L6.88235294,23.25 L6.88235294,22.2626471 C6.88235294,21.1283824 7.4949916,20.0858824 8.4812437,19.5432353 L12.3794958,17.3964706 C13.0318992,17.0369118 13.4369748,16.3473529 13.4369748,15.5977941 L13.4369748,13.8251471 L13.4369748,13.8247059 L13.3522017,13.7223529 L13.3355966,13.7025 C13.3347227,13.7011765 13.3076303,13.6680882 13.2634958,13.6098529 C13.2608739,13.6063235 13.2582521,13.6027941 13.2551933,13.5992647 C13.2320336,13.5688235 13.2049412,13.5322059 13.173916,13.4885294 C13.173479,13.4876471 13.173042,13.4872059 13.172605,13.4863235 C13.1074958,13.395 13.0257815,13.2763235 12.9348908,13.1333824 C12.9327059,13.1302941 12.930958,13.1267647 12.9287731,13.1236765 C12.8859496,13.0561765 12.8405042,12.9825 12.7941849,12.9044118 C12.7906891,12.8986765 12.7871933,12.8929412 12.7836975,12.8867647 C12.6849412,12.7195588 12.5800672,12.5302941 12.4756303,12.3207353 C12.4756303,12.3207353 12.4751933,12.3202941 12.4751933,12.3198529 C12.4196975,12.2073529 12.3642017,12.0891176 12.3100168,11.9660294 L12.3100168,11.9660294 C12.3025882,11.9488235 12.2947227,11.9320588 12.2872941,11.9148529 L12.2872941,11.9148529 C12.2632605,11.8597059 12.2392269,11.8019118 12.2147563,11.7423529 C12.2060168,11.7207353 12.1972773,11.6982353 12.1885378,11.6761765 C12.1658151,11.6183824 12.1426555,11.5601471 12.1181849,11.4935294 C12.0736134,11.3735294 12.0316639,11.2482353 11.9914622,11.1189706 L11.9674286,11.0404412 C11.9648067,11.0316176 11.9617479,11.0227941 11.9591261,11.0135294 C11.9180504,10.8741176 11.8787227,10.7316176 11.8455126,10.5851471 L11.8057479,10.4104412 L11.6567395,10.3133824 C11.4032941,10.1483824 11.2521008,9.87176471 11.2521008,9.57352941 L11.2521008,7.80882353 C11.2521008,7.56132353 11.3561008,7.33058824 11.5448739,7.15808824 L11.6890756,7.02705882 L11.6890756,4.27941176 L11.6890756,4.12323529 L11.6772773,4.11397059 C11.6624202,3.79544118 11.6812101,2.81911765 12.3864874,2.00691176 C13.1105546,1.17264706 14.3463193,0.75 16.0588235,0.75 C17.7652101,0.75 18.9983529,1.16955882 19.7232941,1.99764706 C20.574084,2.96867647 20.4333782,4.21102941 20.4325042,4.22161765 L20.4285714,7.02705882 L20.5727731,7.15852941 C20.7615462,7.33058824 20.8655462,7.56132353 20.8655462,7.80882353 L20.8655462,9.57352941 C20.8655462,9.95867647 20.6155966,10.2957353 20.2441681,10.4113235 L20.0265546,10.4788235 L19.9566387,10.6972059 C19.6643025,11.6152941 19.2478655,12.4632353 18.7182521,13.2176471 C18.5884706,13.4033824 18.4621849,13.5679412 18.3525042,13.6936765 L18.2436975,13.8189706 L18.2436975,15.6388235 C18.2436975,16.4197059 18.6732437,17.1216176 19.3649748,17.4710294 L23.539395,19.5780882 C24.5855126,20.1061765 25.2352941,21.1676471 25.2352941,22.3486765 L25.2352941,23.25 Z" id="Shape"></path>
                </g>
            </g>
        </g>
    </g>
</svg>