<?xml version="1.0" encoding="UTF-8"?>
<svg width="28px" height="48px" viewBox="0 0 28 48" version="1.1" xmlns="http://www.w3.org/2000/svg" xmlns:xlink="http://www.w3.org/1999/xlink">
    <!-- Generator: Sketch 55.1 (78136) - https://sketchapp.com -->
    <title>v</title>
    <desc>Created with Sketch.</desc>
    <defs>
        <path d="M21,17.921875 L21,19.9453125 C21,20.4222656 20.60625,20.8125 20.125,20.8125 L7.875,20.8125 C7.39375,20.8125 7,20.4222656 7,19.9453125 L7,17.921875 C7,17.4449219 7.39375,17.0546875 7.875,17.0546875 L20.125,17.0546875 C20.60625,17.0546875 21,17.4449219 21,17.921875 Z M20.125,23.125 L7.875,23.125 C7.39375,23.125 7,23.5152344 7,23.9921875 L7,26.015625 C7,26.4925781 7.39375,26.8828125 7.875,26.8828125 L20.125,26.8828125 C20.60625,26.8828125 21,26.4925781 21,26.015625 L21,23.9921875 C21,23.5152344 20.60625,23.125 20.125,23.125 Z M28,9.53183594 L28,33.53125 C28,35.4462891 26.4322917,37 24.5,37 L3.5,37 C1.56770833,37 0,35.4462891 0,33.53125 L0,3.46875 C0,1.55371094 1.56770833,0 3.5,0 L18.3822917,0 C19.3083333,0 20.1979167,0.368554688 20.8541667,1.01894531 L26.971875,7.08203125 C27.628125,7.72519531 28,8.6140625 28,9.53183594 Z M18.6666667,3.75058594 L18.6666667,9.25 L24.215625,9.25 L18.6666667,3.75058594 Z M24.5,33.53125 L24.5,12.71875 L16.9166667,12.71875 C15.946875,12.71875 15.1666667,11.9455078 15.1666667,10.984375 L15.1666667,3.46875 L3.5,3.46875 L3.5,33.53125 L24.5,33.53125 Z" id="path-1"></path>
    </defs>
    <g id="v" stroke="none" stroke-width="1" fill="none" fill-rule="evenodd">
        <g id="Regular/file-alt-Copy-3" transform="translate(0.000000, 6.000000)">
            <mask id="mask-2" fill="white">
                <use xlink:href="#path-1"></use>
            </mask>
            <use id="Mask" fill="#FFFFFF" fill-rule="nonzero" xlink:href="#path-1"></use>
        </g>
    </g>
</svg>